<svg width="23" height="23" viewBox="0 0 23 23" fill="none" xmlns="http://www.w3.org/2000/svg">
<path d="M15.2327 11.0716C15.0698 10.7467 14.7382 10.5417 14.375 10.5417H12.4583V0.958318C12.4583 0.429318 12.03 0 11.5 0C10.9701 0 10.5417 0.429318 10.5417 0.958318V10.5416H8.62501C8.26182 10.5416 7.93021 10.7467 7.76732 11.0716C7.60632 11.3965 7.64082 11.7846 7.85838 12.075L10.7334 15.9083C10.7458 15.9246 10.765 15.9303 10.7784 15.9456C10.8417 16.0204 10.9164 16.0779 10.9998 16.1306C11.0343 16.1517 11.0611 16.1795 11.0985 16.1967C11.2212 16.2542 11.3553 16.2916 11.5001 16.2916C11.6448 16.2916 11.7789 16.2542 11.9026 16.1967C11.939 16.1795 11.9668 16.1517 12.0003 16.1306C12.0837 16.0779 12.1584 16.0204 12.2217 15.9456C12.2341 15.9303 12.2543 15.9246 12.2667 15.9083L15.1417 12.075C15.3602 11.7846 15.3947 11.3965 15.2327 11.0716Z" fill="#109CF1"/>
<path d="M22.0417 14.375C21.5117 14.375 21.0834 14.8043 21.0834 15.3333V18.2083C21.0834 19.7934 19.7934 21.0833 18.2084 21.0833H4.79168C3.20661 21.0833 1.91668 19.7934 1.91668 18.2083V15.3333C1.91668 14.8043 1.48831 14.375 0.958363 14.375C0.428375 14.375 0 14.8043 0 15.3333V18.2083C0 20.8504 2.14956 23 4.79168 23H18.2084C20.8504 23 23 20.8504 23 18.2083V15.3333C23 14.8043 22.5716 14.375 22.0417 14.375Z" fill="#109CF1"/>
</svg>
